#!OML:ASF X:\für Bonn\!DataBase\2005_08_11_Bastian_Final\c3d\Bastian.ASF
:FULLY-SPECIFIED
:DEGREES
62
root 0.975257 8.58168 0.88842 170.169 -4.77136 -175.38
lowerback 29.697 -0.849508 1.84346
upperback 3.77575 -1.42135 0.885196
thorax -12.1757 -1.13707 0.595864
lowerneck -11.1897 -6.40865 -6.28289
upperneck -9.77893 -8.77591 12.3356
head -0.24332 -4.83076 4.43491
rclavicle -4.17448e-015 7.15625e-015
rhumerus 72.2282 -1.32344 17.0386
rradius 41.9267
rwrist -71.538
rhand -44.8929 -4.59487
rfingers 7.12502
rthumb -17.6806 -33.811
lclavicle -4.17448e-015 7.15625e-015
lhumerus 64.4298 -2.38808 -20.5631
lradius 33.7635
lwrist 19.7542
lhand -46.6541 13.5805
lfingers 7.12502
lthumb -19.3747 42.6353
rfemur -60.8062 -28.8664 22.7058
rtibia 141.656
rfoot -50.0333 -6.23072
rtoes -13.456
lfemur -57.6806 32.2514 -7.67985
ltibia 144.79
lfoot -48.9567 -27.1089
ltoes 0.545337
63
root 0.97056 8.3348 0.906814 170.018 -4.6931 -175.351
lowerback 30.0429 -0.812121 1.90277
upperback 3.89104 -1.3849 0.904786
thorax -12.2171 -1.13881 0.579586
lowerneck -11.3171 -6.38779 -6.22787
upperneck -10.0279 -8.77638 12.3889
head -0.296922 -4.8546 4.44563
rclavicle -5.36719e-015 -1.86858e-014
rhumerus 72.0879 -1.62709 16.7171
rradius 41.999
rwrist -71.5896
rhand -45.1225 -4.5146
rfingers 7.12502
rthumb -17.9015 -33.7107
lclavicle -5.36719e-015 -1.86858e-014
lhumerus 64.0053 -2.10082 -21.7226
lradius 33.9908
lwrist 20.4566
lhand -46.9061 14.0144
lfingers 7.12502
lthumb -19.617 43.0446
rfemur -61.8979 -31.1235 22.7782
rtibia 143.631
rfoot -50.738 -6.67866
rtoes -13.9096
lfemur -58.3521 35.6769 -6.946
ltibia 146.906
lfoot -49.9042 -27.4697
ltoes 0.966954
64
root 0.965232 8.09824 0.925287 169.762 -4.61516 -175.342
lowerback 30.6429 -0.775266 1.96349
upperback 3.60163 -1.34901 0.928101
thorax -12.0171 -1.15263 0.538579
lowerneck -11.4179 -6.36673 -6.18053
upperneck -10.308 -8.77726 12.4404
head -0.363628 -4.88105 4.45897
rclavicle 1.08338e-014 -1.15295e-014
rhumerus 71.9861 -1.92045 16.2823
rradius 42.0287
rwrist -71.552
rhand -45.2801 -4.5195
rfingers 7.12502
rthumb -18.0532 -33.7017
lclavicle 1.08338e-014 -1.15295e-014
lhumerus 63.5721 -1.84207 -22.7864
lradius 34.2106
lwrist 21.0275
lhand -47.0593 14.4662
lfingers 7.12502
lthumb -19.7643 43.4814
rfemur -62.764 -33.572 22.7211
rtibia 145.507
rfoot -51.4815 -6.97191
rtoes -14.0021
lfemur -58.7156 39.2759 -6.07732
ltibia 148.898
lfoot -50.8407 -27.7354
ltoes 1.50997
65
root 0.959844 7.87177 0.944104 169.363 -4.52653 -175.348
lowerback 31.2535 -0.722133 2.02292
upperback 3.75368 -1.31564 0.912759
thorax -12.1054 -1.16698 0.493587
lowerneck -11.5589 -6.34244 -6.07372
upperneck -10.549 -8.78186 12.4709
head -0.416195 -4.90911 4.4539
rclavicle 2.98177e-016 -5.1684e-015
rhumerus 71.896 -2.23227 15.6758
rradius 41.9815
rwrist -71.4308
rhand -45.3619 -4.47493
rfingers 7.12502
rthumb -18.1319 -33.6498
lclavicle 2.98177e-016 -5.1684e-015
lhumerus 63.1934 -1.53903 -23.7261
lradius 34.36
lwrist 21.4554
lhand -47.0876 14.8864
lfingers 7.12502
lthumb -19.7915 43.8988
rfemur -63.3294 -36.2129 22.5202
rtibia 147.264
rfoot -52.2534 -7.21911
rtoes -13.9156
lfemur -58.649 43.0631 -4.96373
ltibia 150.768
lfoot -51.81 -27.7849
ltoes 1.73444
66
root 0.955175 7.66394 0.963125 168.905 -4.43541 -175.37
lowerback 31.9453 -0.658835 2.02498
upperback 3.9083 -1.29138 0.922135
thorax -12.2198 -1.18602 0.511786
lowerneck -11.6779 -6.31197 -6.01929
upperneck -10.7964 -8.77189 12.5177
head -0.472072 -4.92903 4.4639
rclavicle -1.51076e-014 1.11319e-014
rhumerus 71.8724 -2.57322 14.9868
rradius 41.8883
rwrist -71.2414
rhand -45.3479 -4.50263
rfingers 7.12502
rthumb -18.1184 -33.6788
lclavicle -1.51076e-014 1.11319e-014
lhumerus 62.8037 -1.26834 -24.5883
lradius 34.4801
lwrist 21.9069
lhand -47.0431 15.2613
lfingers 7.12502
lthumb -19.7487 44.2781
rfemur -63.6747 -38.9126 22.216
rtibia 148.865
rfoot -53.0127 -7.4593
rtoes -13.571
lfemur -58.1776 46.8014 -3.60159
ltibia 152.454
lfoot -52.7131 -27.7886
ltoes 2.13156
67
root 0.949267 7.48388 0.982489 168.491 -4.34074 -175.355
lowerback 32.6126 -0.596029 2.08062
upperback 4.05366 -1.24888 0.931646
thorax -12.3298 -1.19892 0.493476
lowerneck -11.83 -6.27919 -5.92199
upperneck -11.0312 -8.76563 12.528
head -0.523096 -4.95126 4.45458
rclavicle 3.18055e-015 -1.98785e-015
rhumerus 71.8591 -2.92583 14.136
rradius 41.7234
rwrist -70.8793
rhand -45.2013 -4.61169
rfingers 7.12502
rthumb -17.9773 -33.8008
lclavicle 3.18055e-015 -1.98785e-015
lhumerus 62.4866 -0.953758 -25.1302
lradius 34.5239
lwrist 22.2041
lhand -46.9351 15.6153
lfingers 7.12502
lthumb -19.6449 44.6427
rfemur -63.9133 -41.3453 21.9935
rtibia 150.23
rfoot -53.6917 -7.67959
rtoes -13.0671
lfemur -57.6424 50.1453 -2.2916
ltibia 153.918
lfoot -53.4487 -27.472
ltoes 2.24344
68
root 0.943283 7.33552 1.00174 168.216 -4.25527 -175.347
lowerback 33.1749 -0.545822 2.12073
upperback 4.16049 -1.21646 0.941588
thorax -12.4367 -1.21043 0.485123
lowerneck -11.9669 -6.24077 -5.81875
upperneck -11.2686 -8.75355 12.5439
head -0.577631 -4.97178 4.44696
rclavicle 1.26228e-014 -1.07344e-014
rhumerus 71.8572 -3.28418 13.2475
rradius 41.5785
rwrist -70.4968
rhand -44.9755 -4.74621
rfingers 7.12502
rthumb -17.7601 -33.9552
lclavicle 1.26228e-014 -1.07344e-014
lhumerus 62.2032 -0.674371 -25.5572
lradius 34.526
lwrist 22.5776
lhand -46.7909 15.9319
lfingers 7.12502
lthumb -19.5063 44.9734
rfemur -64.2781 -43.32 21.944
rtibia 151.365
rfoot -54.2468 -7.57296
rtoes -11.6911
lfemur -57.2924 52.8257 -1.29091
ltibia 155.126
lfoot -53.9589 -27.1196
ltoes 2.26734
69
root 0.937693 7.2209 1.02113 168.05 -4.19599 -175.318
lowerback 33.6685 -0.508393 2.16729
upperback 4.22824 -1.18589 0.95591
thorax -12.5575 -1.21805 0.476959
lowerneck -12.0661 -6.19754 -5.6945
upperneck -11.5033 -8.73626 12.542
head -0.6396 -4.99007 4.43221
rclavicle -5.76476e-015 7.95139e-015
rhumerus 71.8436 -3.63046 12.4121
rradius 41.4484
rwrist -70.1108
rhand -44.7179 -4.93324
rfingers 7.12502
rthumb -17.5122 -34.1645
lclavicle -5.76476e-015 7.95139e-015
lhumerus 62.0067 -0.392356 -25.6363
lradius 34.4307
lwrist 22.8261
lhand -46.6449 16.1929
lfingers 7.12502
lthumb -19.3659 45.2486
rfemur -64.7189 -44.7108 22.0988
rtibia 152.245
rfoot -54.6836 -7.33589
rtoes -9.93759
lfemur -57.2471 54.7149 -0.753455
ltibia 156.053
lfoot -54.2024 -26.7292
ltoes 2.39329
70
root 0.932177 7.13976 1.04156 167.906 -4.1314 -175.27
lowerback 34.1793 -0.47685 2.21485
upperback 4.27919 -1.1584 0.980204
thorax -12.7017 -1.22649 0.480834
lowerneck -12.149 -6.13622 -5.54631
upperneck -11.7558 -8.69977 12.5087
head -0.71399 -5.00111 4.4065
rclavicle -3.47873e-015 1.19271e-015
rhumerus 71.8212 -3.95246 11.7305
rradius 41.3849
rwrist -69.8263
rhand -44.5203 -5.11201
rfingers 7.12502
rthumb -17.3221 -34.3601
lclavicle -3.47873e-015 1.19271e-015
lhumerus 61.8286 -0.164561 -25.5438
lradius 34.3324
lwrist 23.2472
lhand -46.5446 16.3742
lfingers 7.12502
lthumb -19.2694 45.4395
rfemur -65.0752 -45.4068 22.3944
rtibia 152.845
rfoot -54.9924 -7.54666
rtoes -9.18274
lfemur -57.2892 55.8296 -0.529016
ltibia 156.675
lfoot -54.311 -26.389
ltoes 2.55097
71
root 0.926274 7.08469 1.06245 167.791 -4.06607 -175.201
lowerback 34.6664 -0.446313 2.28661
upperback 4.31815 -1.11904 1.00867
thorax -12.8477 -1.22934 0.470775
lowerneck -12.2484 -6.08693 -5.39193
upperneck -11.981 -8.67987 12.4636
head -0.777409 -5.01847 4.37395
rclavicle -4.37326e-015 -8.34896e-015
rhumerus 71.7347 -4.22309 11.2505
rradius 41.4073
rwrist -69.6158
rhand -44.3789 -5.36151
rfingers 7.12502
rthumb -17.1859 -34.6215
lclavicle -4.37326e-015 -8.34896e-015
lhumerus 61.6956 -0.0112897 -25.452
lradius 34.2728
lwrist 23.9379
lhand -46.5688 16.5404
lfingers 7.12502
lthumb -19.2927 45.6034
rfemur -65.3919 -45.5166 22.7822
rtibia 153.233
rfoot -55.286 -7.70115
rtoes -8.30444
lfemur -57.3631 56.4419 -0.454513
ltibia 157.069
lfoot -54.4487 -26.1259
ltoes 2.70765
72
root 0.921067 7.0479 1.08398 167.722 -3.99594 -175.155
lowerback 35.0795 -0.411254 2.31536
upperback 4.34863 -1.08526 1.03502
thorax -12.9726 -1.23026 0.481582
lowerneck -12.3061 -6.02699 -5.25718
upperneck -12.2008 -8.64088 12.4377
head -0.845014 -5.02554 4.35256
rclavicle 1.00386e-014 1.51076e-014
rhumerus 71.6066 -4.40171 11.0746
rradius 41.532
rwrist -69.6256
rhand -44.4146 -5.5578
rfingers 7.12502
rthumb -17.2203 -34.8148
lclavicle 1.00386e-014 1.51076e-014
lhumerus 61.5772 0.0244833 -25.3556
lradius 34.2484
lwrist 24.8636
lhand -46.7253 16.6358
lfingers 7.12502
lthumb -19.4432 45.6837
rfemur -65.7379 -45.1876 23.2178
rtibia 153.468
rfoot -55.5137 -7.88153
rtoes -7.64748
lfemur -57.5865 56.5613 -0.644455
ltibia 157.281
lfoot -54.6209 -25.8779
ltoes 2.84053
73
root 0.915208 7.02831 1.10572 167.651 -3.95195 -175.105
lowerback 35.4231 -0.392404 2.36844
upperback 4.40385 -1.06788 1.05703
thorax -13.0408 -1.24035 0.479408
lowerneck -12.4233 -5.96681 -5.09673
upperneck -12.3746 -8.60644 12.3703
head -0.893313 -5.03193 4.31093
rclavicle 1.41137e-014 -2.38542e-015
rhumerus 71.4917 -4.47016 10.8967
rradius 41.6495
rwrist -69.5805
rhand -44.5205 -5.6426
rfingers 7.12502
rthumb -17.3222 -34.8907
lclavicle 1.41137e-014 -2.38542e-015
lhumerus 61.4691 -0.0554994 -25.3442
lradius 34.2992
lwrist 26.0141
lhand -46.9807 16.7581
lfingers 7.12502
lthumb -19.6887 45.7811
rfemur -65.9607 -44.6033 23.5872
rtibia 153.565
rfoot -55.7317 -8.05776
rtoes -7.04741
lfemur -57.8147 56.3086 -0.931687
ltibia 157.352
lfoot -54.7775 -25.7224
ltoes 2.99637
